<svg id="Capa_1" enable-background="new 0 0 512 512" height="512" viewBox="0 0 512 512" width="512" xmlns="http://www.w3.org/2000/svg" xmlns:xlink="http://www.w3.org/1999/xlink"><linearGradient id="SVGID_1_" gradientUnits="userSpaceOnUse" x1="76.444" x2="485.717" y1="446.576" y2="37.302"><stop offset="0" stop-color="#fff" stop-opacity="0"/><stop offset=".2532" stop-color="#eef" stop-opacity=".403"/><stop offset=".629" stop-color="#d9d9ff"/></linearGradient><linearGradient id="SVGID_2_" gradientUnits="userSpaceOnUse" x1="256" x2="256" y1="464.53" y2="47.47"><stop offset="0" stop-color="#ff4d4d" stop-opacity=".4"/><stop offset=".1463" stop-color="#ff4d4d" stop-opacity=".342"/><stop offset="1" stop-color="#ff4d4d" stop-opacity="0"/></linearGradient><g><g><g><path d="m491.317 43.385c-60.958-44.505-129.484 25.896-170.058 74.661-19.081 22.934-52 54.275-81.963 33.185-22.453-15.804-16.509-59.052-42.326-68.401-59.779-21.647-178.097 130.732-195.89 239.886-7.178 44.033 22.163 91.911 65.761 82.234 14.523-3.224 46.7-21.051 60.845-25.664 77.317-25.216 54.433 55.389 83.662 88.458 16.182 18.308 45.168 17.126 68.782 10.855 108.503-28.815 156.372-91.33 204.157-212.685 22.416-56.932 45.658-194.327 7.03-222.529z" fill="url(#SVGID_1_)"/></g></g><g><g><g><g><g><g><g><path d="m379.85 73.01v365.98c0 14.1-11.43 25.54-25.54 25.54h-196.62c-14.1 0-25.54-11.44-25.54-25.54v-365.98c0-14.1 11.44-25.54 25.54-25.54h196.62c14.11 0 25.54 11.44 25.54 25.54z" fill="#4d4dff"/><path d="m182.19 351.39c0 28.62-22.03 52.08-50.04 54.36v-108.71c28.01 2.28 50.04 25.74 50.04 54.35z" fill="#2c27ff"/><path d="m359.42 73.02v365.97c0 2.82-2.29 5.11-5.11 5.11h-196.61c-2.82 0-5.11-2.29-5.11-5.11v-365.97c0-2.82 2.29-5.11 5.11-5.11h29.55c3.71 0 7.13 2.01 8.94 5.25l1.45 2.62c3.61 6.49 10.44 10.51 17.86 10.51h84.29c7.42 0 14.26-4.02 17.86-10.51l1.46-2.62c1.8-3.24 5.22-5.25 8.93-5.25h26.27c2.82 0 5.11 2.29 5.11 5.11z" fill="#fff"/><g fill="#d9d9ff"><path d="m182.19 351.39c0 21.14-12.02 39.47-29.6 48.52v-97.03c17.58 9.05 29.6 27.37 29.6 48.51z"/><path d="m359.418 260.751v-187.731c0-2.82-2.29-5.11-5.11-5.11h-26.27c-3.71 0-7.13 2.01-8.93 5.25l-1.46 2.62c-3.6 6.49-10.44 10.51-17.86 10.51h-84.29c-7.42 0-14.25-4.02-17.86-10.51l-1.45-2.62c-1.81-3.24-5.23-5.25-8.94-5.25h-29.55c-2.82 0-5.11 2.29-5.11 5.11v187.731z"/></g></g></g></g><g><g><circle cx="256" cy="155.629" fill="#6c6cff" r="45"/></g><path d="m272.613 149.823c0-9.161-7.453-16.613-16.613-16.613-9.161 0-16.613 7.453-16.613 16.613 0 4.518 1.818 8.615 4.755 11.613-2.936 2.998-4.755 7.095-4.755 11.613 0 2.761 2.239 5 5 5s5-2.239 5-5c0-3.646 2.967-6.613 6.613-6.613s6.613 2.967 6.613 6.613c0 2.761 2.239 5 5 5s5-2.239 5-5c0-4.518-1.818-8.615-4.754-11.613 2.936-2.998 4.754-7.095 4.754-11.613zm-16.613-6.614c3.646 0 6.613 2.967 6.613 6.613s-2.966 6.613-6.613 6.613-6.613-2.967-6.613-6.613 2.967-6.613 6.613-6.613z" fill="#fff"/></g></g><g><g><path d="m298.37 323.08v75.81c0 2.47-2 4.47-4.46 4.47h-75.82c-2.46 0-4.46-2-4.46-4.47v-75.81c0-2.47 2-4.47 4.46-4.47h27.89v8.34h20.04v-8.34h27.89c2.46 0 4.46 2 4.46 4.47z" fill="#ff9d33"/><g><g><g><g><g><path d="m261.016 348.685h-10.032c-2.761 0-5-2.239-5-5v-25.075h20.032v25.075c0 2.761-2.239 5-5 5z" fill="#ffd6bb"/></g></g></g></g></g><g fill="#ffd6bb"><circle cx="279.886" cy="349.658" r="4.242"/><circle cx="279.886" cy="335.634" r="4.242"/></g></g></g><g><path d="m291.47 388.476c-1.326 0-2.598-.527-3.536-1.464l-7.69-7.692c-1.953-1.953-1.953-5.119 0-7.071 1.951-1.952 5.118-1.952 7.071 0l4.155 4.156 13.718-13.717c1.951-1.952 5.119-1.952 7.07 0 1.953 1.953 1.953 5.119 0 7.071l-17.253 17.252c-.938.938-2.209 1.465-3.535 1.465z" fill="#6c6cff"/></g><g><g><path d="m253.528 280.294-8.648 12.579c-1.368 1.991.057 4.7 2.472 4.7h17.296c2.416 0 3.841-2.709 2.472-4.7l-8.648-12.579c-1.192-1.734-3.752-1.734-4.944 0z" fill="#ff6c6c"/></g><g><path d="m253.528 250.011-8.648 12.579c-1.368 1.991.057 4.7 2.472 4.7h17.296c2.416 0 3.841-2.709 2.472-4.7l-8.648-12.579c-1.192-1.734-3.752-1.734-4.944 0z" fill="#ff6c6c"/></g><g><path d="m253.528 219.728-8.648 12.579c-1.368 1.991.057 4.7 2.472 4.7h17.296c2.416 0 3.841-2.709 2.472-4.7l-8.648-12.579c-1.192-1.734-3.752-1.734-4.944 0z" fill="#ff6c6c"/></g><g><path d="m333.855 113.17 8.648-12.579c1.368-1.991-.057-4.7-2.472-4.7h-17.296c-2.416 0-3.841 2.709-2.472 4.7l8.648 12.579c1.191 1.734 3.752 1.734 4.944 0z" fill="#fff"/></g></g><g fill="#6c6cff"><circle cx="174.499" cy="240.295" r="5.288"/><circle cx="174.499" cy="221.716" r="5.288"/><circle cx="174.499" cy="203.137" r="5.288"/></g><g><path d="m303 281.91c0-2.716 2.201-4.917 4.917-4.917h36.922c2.716 0 4.917 2.201 4.917 4.917 0 2.716-2.201 4.917-4.917 4.917h-36.922c-2.716 0-4.917-2.201-4.917-4.917z" fill="#4d4dff"/></g><g><path d="m323 300.34c0-2.716 2.201-4.917 4.917-4.917h16.922c2.716 0 4.917 2.201 4.917 4.917 0 2.716-2.201 4.917-4.917 4.917h-16.922c-2.716 0-4.917-2.202-4.917-4.917z" fill="#4d4dff"/></g></g><g><path d="m379.85 73.01v365.98c0 14.1-11.43 25.54-25.54 25.54h-196.62c-14.1 0-25.54-11.44-25.54-25.54v-365.98c0-14.1 11.44-25.54 25.54-25.54h196.62c14.11 0 25.54 11.44 25.54 25.54z" fill="url(#SVGID_2_)"/><g><g><circle cx="127.646" cy="327.393" fill="#ff9d33" r="54.543"/></g></g><g><path d="m149.302 303.234-51.569 16.008c-1.716.533-1.914 2.882-.311 3.694l22.434 11.368c.379.192.688.501.88.88l11.368 22.434c.812 1.603 3.161 1.405 3.694-.311l16.008-51.569c.476-1.539-.967-2.981-2.504-2.504z" fill="#fff"/><path d="m151.803 305.736-16.01 51.57c-.53 1.72-2.88 1.91-3.69.31l-11.37-22.43c-.08-.15-.17-.29-.29-.42v-.17l30.86-30.86c.5.48.74 1.23.5 2z" fill="#d9d9ff"/></g></g></g><path d="m426.59 469.48c-2.762 0-5-2.238-5-5 0-3.032-2.468-5.5-5.5-5.5-2.762 0-5-2.238-5-5s2.238-5 5-5c3.032 0 5.5-2.468 5.5-5.501 0-2.762 2.238-5 5-5s5 2.238 5 5c0 3.033 2.468 5.501 5.5 5.501 2.762 0 5 2.238 5 5s-2.238 5-5 5c-3.032 0-5.5 2.468-5.5 5.5 0 2.762-2.238 5-5 5z" fill="#ff9d33"/><path d="m426.59 93.91c-2.762 0-5-2.238-5-5 0-3.032-2.468-5.5-5.5-5.5-2.762 0-5-2.238-5-5s2.238-5 5-5c3.032 0 5.5-2.468 5.5-5.5 0-2.762 2.238-5 5-5s5 2.238 5 5c0 3.032 2.468 5.5 5.5 5.5 2.762 0 5 2.238 5 5s-2.238 5-5 5c-3.032 0-5.5 2.468-5.5 5.5 0 2.762-2.238 5-5 5z" fill="#6c6cff"/><g fill="#ff6c6c"><path d="m83.603 252.507c-2.762 0-5-2.238-5-5 0-3.032-2.468-5.5-5.5-5.5-2.762 0-5-2.238-5-5s2.238-5 5-5c3.032 0 5.5-2.468 5.5-5.5 0-2.762 2.238-5 5-5s5 2.238 5 5c0 3.032 2.468 5.5 5.5 5.5 2.762 0 5 2.238 5 5s-2.238 5-5 5c-3.032 0-5.5 2.468-5.5 5.5 0 2.762-2.239 5-5 5z"/><path d="m421.7 412.857c-1.279 0-2.56-.488-3.535-1.465l-5.465-5.464-5.465 5.464c-1.951 1.953-5.119 1.953-7.07 0-1.953-1.952-1.953-5.118 0-7.07l9-9c1.951-1.953 5.119-1.953 7.07 0l9 9c1.953 1.952 1.953 5.118 0 7.07-.975.977-2.256 1.465-3.535 1.465z"/><path d="m73.103 414.317c-1.279 0-2.56-.488-3.535-1.465l-5.465-5.464-5.465 5.464c-1.951 1.953-5.119 1.953-7.07 0-1.953-1.952-1.953-5.118 0-7.07l9-9c1.951-1.953 5.119-1.953 7.07 0l9 9c1.953 1.952 1.953 5.118 0 7.07-.976.977-2.256 1.465-3.535 1.465z"/></g></g></g></svg>