<svg id="Capa_1" enable-background="new 0 0 510 510" height="512" viewBox="0 0 510 510" width="512" xmlns="http://www.w3.org/2000/svg"><g><path d="m60 30h-60v450l93.667 10 86.333-10 10-15.833-10-14.167z" fill="#a1e2f8"/><path d="m180 450v30l97.5 10 97.5-10v-30l-97.5-10z" fill="#7ec8e3"/><path d="m60 0v450h120l15-210-15-240z" fill="#fbf4f4"/><path d="m405 98.787-68.79-53.787-29.997-45h-126.213v450h225z" fill="#e9e4f0"/><path d="m300 285c0 57.897 47.103 105 105 105l10-97-10-113c-57.897 0-105 47.102-105 105z" fill="#c9e568"/><path d="m405 180v210c57.897 0 105-47.103 105-105s-47.103-105-105-105z" fill="#85c782"/><path d="m120 90v30h60l15-15-15-15z" fill="#e07167"/><path d="m180 90h60v30h-60z" fill="#c6275b"/><path d="m120 150v30h60l10-16.739-10-13.261z" fill="#e9e4f0"/><path d="m255 150h-75v30h75z" fill="#cdcde3"/><path d="m120 240h60l10-15-10-15h-60z" fill="#e9e4f0"/><path d="m180 210h60v30h-60z" fill="#cdcde3"/><path d="m120 300h60l10-15-10-15h-60z" fill="#c9e568"/><path d="m120 360h60l10-15-10-15h-60z" fill="#e9e4f0"/><path d="m180 330h60v30h-60z" fill="#cdcde3"/><path d="m394.394 289.394-19.394-19.394-21.213 21.213 40.607 40.606 10.606-10.606 10-26.546-10-15.88z" fill="#fbf4f4"/><path d="m443.787 240-38.787 38.787v42.426l60-60z" fill="#e9e4f0"/><path d="m0 510h180l10-16.667-10-13.333h-180z" fill="#7ec8e3"/><path d="m180 480h195v30h-195z" fill="#67a7d7"/><path d="m405 98.787-98.787-98.787-.213 98.787z" fill="#cdcde3"/><path d="m180 270h60v30h-60z" fill="#85c782"/></g></svg>